<svg version="1.1" id="Capa_1" xmlns="http://www.w3.org/2000/svg" xmlns:xlink="http://www.w3.org/1999/xlink" x="0px" y="0px" viewBox="0 0 1200 1200" enable-background="new 0 0 1200 1200" xml:space="preserve">
	<path d="M423.858,99.641c-2.231-6.693-1.115-45.737-1.115-45.737l7.809-2.231c0,0,5.02,46.295,8.366,55.776
	c2.112,5.984,49.546,53.069,84.253,86.992c20.286,19.827,22.22,17.446,0.824-5.878c-2.726-2.972-5.572-6.034-8.524-9.163
	c-27.705-29.361-63.913-64.201-67.071-71.952C442.264,92.39,436.687,50,436.687,50l60.796,68.605l105.975,106.812
	c0,0,1.951,5.274,3.977,10.747l26.143,31.922l-13.665,6.135l-7.103-2.959c-0.031,0.216-0.06,0.445-0.091,0.666l-2.86-14.938
	l-1.149,1.076l1.03,25.018c-2.56,2-6.282,2.851-6.282,2.851l-69.72-52.988l-81.991-79.76
	C451.746,153.186,426.089,106.334,423.858,99.641z M636.157,231.692c-12.131-4.602-21.962,6.693-21.962,6.693l16.733,21.125
	C630.928,259.51,648.288,236.293,636.157,231.692z M653.517,265.994c5.02,3.137,3.974,8.576,3.974,8.576s7.88-4.686,14.85-2.859
	c3.014,0.79,9.093,6.193,8.924,8.088c-0.558,6.275-2.44,12.341-5.996,14.641c0,0,4.811,6.066-0.418,12.759
	c-5.229,6.693-5.229,6.693-5.229,6.693s1.673,1.255,1.882,8.366c0.209,7.111-2.301,10.667-2.301,10.667s3.556,2.301,7.112,1.464
	c0,0,6.48,6.811,16.259,1.637c0,0,3.472-4.914,4.866-13.28c1.394-8.366,0.558-15.06,2.51-15.338
	c1.224-0.175,2.226,5.665,1.673,13.665c-0.329,4.76-2.17,11.168-2.198,15.1c1.621,0.146,3.417-0.2,4.917-1.784
	c3.765-3.974,13.805-29.91,12.131-44.551c-1.673-14.641-1.882-15.896-5.229-17.988c-3.346-2.092-5.02-1.464-5.02-1.464
	s-6.066-8.157-11.713-8.576c0,0-6.066-6.066-12.55-7.739c-6.484-1.673-9.203,2.092-9.203,2.092s-2.719-8.785-11.504-6.693
	c-8.785,2.092-15.896,10.04-16.942,14.223C644.314,263.693,648.497,262.857,653.517,265.994z M737.6,878.837
	c10.04-5.857,0-25.099,6.693-30.119c6.693-5.02-0.837-23.426,5.02-26.773c5.857-3.347,5.02-6.693,6.693-35.976
	c1.673-29.283,10.04-51.872-12.55-74.461c-22.59-22.59-57.729-14.223-74.462-13.386c-16.733,0.837-42.669,76.971-52.709,77.808
	c-10.04,0.837-5.856,21.753-5.856,21.753c-10.876,4.183-1.673,21.753-1.673,21.753c-10.876,0-6.693,27.609-6.693,27.609
	l-11.713,85.338c0,0-25.099,127.17-38.486,137.21c-13.386,10.04-8.367,30.119-8.367,32.629c0,2.51,22.59-20.916,29.283-23.426
	s34.302-4.183,40.996,20.079c6.693,24.263,30.119,33.466,32.629,33.466c2.51,0,9.203-61.075,19.243-85.338
	C675.689,1022.74,727.561,884.694,737.6,878.837z M770.23,748.878c4.462,46.852-13.386,80.318-13.386,80.318s0,21.195-5.02,27.052
	c-5.02,5.857,0,0,1.673,15.06c1.673,15.06-15.896,20.916-15.896,20.916s26.773,0.837,57.729-38.486
	c30.956-39.322,21.753-139.72,21.753-139.72s-10.04-16.733-12.55-18.406c-2.51-1.673-35.139-7.53-35.139-7.53l-20.08,10.876
	C749.313,698.958,766.834,713.224,770.23,748.878z M601.227,766.727l-51.314,1.116l-3.904,17.291c0,0-15.896,3.347-11.713,30.119
	c4.183,26.773,19.243,40.996,19.243,40.996v107.927l15.896,24.263c0,0,23.426-114.621,21.753-129.68
	c-0.553-4.978-2.221-12.799-1.673-18.825c1.109-12.203,5.438-22.171,5.438-22.171s-6.275-17.57,2.092-25.099
	C602.058,788.15,601.227,766.727,601.227,766.727z M831.32,1017.714l-11.713-21.753c0,0-24.542,12.271-26.215,15.06
	c-1.673,2.789-28.446,22.868-28.446,22.868l-52.988,4.462c0,0-8.366,7.809-7.809,17.291c0.558,9.482,12.829,12.829,12.829,12.829
	s-2.789,16.175-6.693,20.079c-3.904,3.905-34.024,29.562-37.37,31.235c-3.347,1.673,2.231,14.502,3.347,16.733
	c1.115,2.231,59.123-0.558,59.123-0.558s38.486-15.617,49.083-22.311c10.598-6.693-1.031-34.936,1.673-34.581
	c6.678,2.655,11.155,18.964,11.155,18.964l12.271-7.809c0,0,13.386,2.231,15.617,2.231c2.231,0,35.697-22.311,40.159-37.928
	C869.805,1038.909,831.32,1017.714,831.32,1017.714z M766.046,950.789c-5.02-5.02-9.203-4.183-16.733-4.183
	c-7.53,0-22.589-15.06-25.099-16.733c-2.51-1.673-7.53,9.203-7.53,9.203l-29.283,85.338l12.55,12.55c0,0,9.239-9.926,25.936-13.386
	c12.397-2.569,32.302,1.892,37.649-1.673c12.55-8.367,40.159-35.976,40.159-35.976c-1.866-3.266-6.052-6.938-11.62-10.751
	C782.172,966,769.078,953.82,766.046,950.789z M619.667,1122.329c-0.933-1.788-2.031-3.507-3.38-5.048
	c-8.785-10.04-3.765-16.036-13.386-23.147c-9.621-7.111-23.008-9.203-23.008-9.203s-11.927,8.562-22.962,16.307
	c0,0,16.706,10.046,11.677,9.908c-9.212-5.577-22.313-2.845-22.313-2.845c-0.418,0.241-0.804,0.456-1.122,0.615
	c0,0-0.282,0.39-0.761,1.063c-5.852,5.251-23.362,21.247-22.665,24.036c0,0-0.279,15.339,5.857,15.896s104.86-1.673,104.86-1.673
	s-0.448-10.057-5.586-17.008C625.167,1127.94,622.837,1124.718,619.667,1122.329z M399.207,479.779
	c-6.926-5.079-12.824-11.595-17.767-18.506c-0.632-0.22-2.349-2.612-2.326-3.375c-12.141-18.376-17.726-38.344-17.726-41.308
	c0-2.293,0.023-5.398,28.914-17.247l-6.603-8.689l-1.395-14.363l20.177-14.715l-2.858-2.242l-20.107,10.264
	c0,0-5.438,15.617-5.856,16.872c-0.418,1.255-39.322,1.255-39.322,1.255c-1.255-9.203,27.191-22.171,27.191-22.171
	s0-15.06,0.418-28.864s13.805-38.067,27.191-46.852c13.386-8.785,51.872-19.243,78.226-7.111
	c26.354,12.131,46.434,44.342,46.434,44.342l4.779,15.229l-25.26-1.316l0.982,2.84l26.396,5.224l3.561,11.349l-18.406,26.494
	l14.223,15.06c0,0-6.693,9.9-16.733,13.665c-10.04,3.765-17.151,36.533-17.151,36.533l-6.693,2.928l1.881-33.06
	c0,0-10.518,31.289-14.849,36.824c-3.198,4.086-10.171,7.111-17.582,8.829c-0.662,0.549-1.526,0.857-2.467,0.783
	c-3.485-0.275-15.035,4.242-25.829,9.07c-3.065,1.885-5.98,3.266-8.688,4.026c-0.746,0.359-1.48,0.714-2.183,1.059
	c-0.495,0.242-1.018,0.357-1.534,0.357c-0.774,0-1.511-0.286-2.123-0.76C403.556,482.05,401.232,481.264,399.207,479.779z
	 M373.838,432.924l18.811-11.202c-0.461-4.642-0.727-11.009-0.868-15.438c-11.394,4.748-20.566,9.165-23.251,11.222
	C369.056,419.809,370.793,425.641,373.838,432.924z M384.452,453.285c3.493-1.572,10.186-4.49,23.202-10.02
	c-4.747-5.224-10.665-11.795-12.996-14.625l-17.954,10.692C378.849,443.826,381.425,448.598,384.452,453.285z M403.331,474.157
	c1.471,1.078,3.32,1.387,5.663,0.941c0.213-0.041,0.445-0.128,0.663-0.18c2.176-1.042,5.139-2.431,8.448-3.916
	c1.992-1.277,4.075-2.803,6.238-4.565c-5.686-5.538-10.106-15.963-10.106-15.963s-0.614-0.669-1.601-1.747
	c-8.688,3.691-18.64,7.95-24.141,10.375C392.721,464.737,397.653,469.993,403.331,474.157z M526.766,729.914l-0.401,0.541
	c5.08,15.041,13.787,28.742,13.787,28.742s7.565,5.025,18.312,0.344c15.314,0.735,55.495-1.816,58.381-2.297
	c3.23-0.538,21.522-51.966,37.835-60.828c0.597-0.2,1.188-0.448,1.766-0.805c28.446-17.57,77.808-4.183,77.808-4.183l15.896-5.02
	c0,0,17.291,1.116,8.366-31.235c-7.624-27.636-44.534-71.535-59.309-95.571c-1.177,10.77-3.698,22.635-8.459,34.775
	c-16.733,42.669-25.099,46.016-25.099,46.016s20.365-48.188,20.916-91.194c0.344-26.828-16.997-54.367-21.195-58.565
	c-1.369-1.369-2.853-3.312-4.441-5.642l2.422-32.098c2.685-13.494,6.896-30.465,11.501-33.096
	c7.809-4.462,50.199-39.043,50.199-39.043s-7.041,2.158-14.706,1.963l39.248-26.505c0,0,11.713-14.502,10.598-30.119
	c-1.116-15.617-38.486-33.466-38.486-33.466c4.462,37.928-16.733,54.103-20.079,54.103c-3.347,0-30.677-3.904-30.677-3.904
	s1.637,7.322,7.643,21.912c-8.525-7.657-15.517-15.668-13.779-18.565c3.347-5.578-52.43,26.773-52.43,26.773v12.271
	c0,0,5.855,17.849,15.229,34.473c4.554,12.035,13.112,29.93,20.386,44.536c-3.811-5.983-7.937-11.936-12.356-16.776
	c-12.438-13.623-28.558-49.684-28.558-49.684s-11.713,51.872-30.119,75.298c-18.406,23.426-41.832,39.322-41.832,39.322
	l-30.956,21.753l-0.003,0.077l-4.94,1.572l0.016-0.068c1.92-1.917,39.152-39.037,46.759-42.297
	c7.809-3.347,8.366-8.366,23.426-31.235c14.04-21.32,22.259-69.282,23.308-75.684c1.017,0.415,1.913,0.702,2.628,0.804
	c7.839,1.12,3.712-9.088,8.078-19.918l7.818-5.6c0,0,16.621-6.948,26.773-12.828c13.065-7.569,26.302-15.896,26.773-15.896
	c0.837,0,2.789-12.271,0-13.944c-2.789-1.673-26.564,14.85-27.888,13.107s30.956-19.243,34.581-27.052
	c3.625-7.809-1.952-8.088-1.952-8.088s-45.295,22.858-45.737,21.474c-1.046-3.277,42.39-22.032,50.199-31.235
	s-3.904-12.829-3.904-12.829s-57.723,28.965-58.286,27.888c-0.896-1.71,42.739-24.681,42.739-24.681
	c-0.628-9.831-11.504-9.621-11.504-9.621l-23.147,11.155c0,0-9.761,10.598-12.828,11.992c-3.068,1.394-17.849-7.809-17.849-7.809
	s-12.271,10.319-13.107,11.155c0,0-17.57,19.522-23.426,25.657c-1.953,2.046-0.25,9.278,3.592,17.885
	c-2.842,2.986-8.779,10.045-6.521,14.884c0.688,1.473,3.094,4.083,6.469,7.22c-3.632,7.027-13.037,24.666-17.484,27.779
	c-5.578,3.904-12.271,15.617-28.446,28.446c-11.834,9.386-16.797,28.909-18.611,38.72l-30.193,17.893c0,0-28.027,1.464-32.211,5.647
	c-4.183,4.183-41.414,28.655-30.538,56.264c10.876,27.609,42.669,55.219,44.342,69.442c0.685,5.822,3.351,8.837,7.043,11.634
	c9.802,0.54,26.816-8.187,52.916-51.793c0,0-20.637,59.681-35.697,65.258c-0.309,0.115-0.615,0.196-0.922,0.285
	c1.151,1.422,2.3,2.955,3.432,4.734c8.859,13.921,25.848,30.228,40.482,42.781c1.4,4.127,7.135,21.196,11.269,35.894
	c9.352-32.793,19.831-80.406,19.364-128.037C540.989,585.174,551.865,681.389,526.766,729.914z" style="fill: rgb(226, 141, 141);">
	</path>
</svg>
